<?xml version="1.0" standalone="no"?>
<!DOCTYPE svg PUBLIC "-//W3C//DTD SVG 20010904//EN"
 "http://www.w3.org/TR/2001/REC-SVG-20010904/DTD/svg10.dtd">
<svg version="1.0" xmlns="http://www.w3.org/2000/svg"
 width="900.000000pt" height="900.000000pt" viewBox="0 0 900.000000 900.000000"
 preserveAspectRatio="xMidYMid meet">

<g transform="translate(0.000000,900.000000) scale(0.100000,-0.100000)"
fill="#000000" stroke="none">
<path d="M1323 4694 c-111 -273 -200 -501 -197 -505 6 -11 184 -12 201 -1 7 4
19 26 26 47 l14 40 170 3 170 2 11 -39 c18 -58 27 -62 140 -59 l100 3 -169
415 c-192 471 -240 582 -254 587 -6 1 -101 -220 -212 -493z m251 -71 c16 -49
32 -103 36 -120 l8 -33 -85 0 -85 0 7 27 c11 47 77 213 84 213 4 0 20 -39 35
-87z"/>
<path d="M2470 4675 l0 -495 250 0 250 0 0 95 0 94 -152 3 -153 3 -3 97 -3 97
128 3 128 3 3 98 3 97 -131 0 -131 0 3 98 3 97 143 3 142 3 0 99 0 100 -240 0
-240 0 0 -495z"/>
<path d="M4557 5163 c-4 -3 -7 -48 -7 -98 l0 -92 83 -6 c45 -4 101 -7 125 -7
l42 0 0 -313 c0 -173 3 -348 6 -390 l7 -77 88 0 89 0 0 395 0 395 125 0 126 0
-3 98 -3 97 -336 3 c-184 1 -338 -1 -342 -5z"/>
<path d="M6063 5155 c-105 -32 -245 -154 -289 -250 -55 -119 -55 -351 0 -471
32 -69 133 -172 204 -208 108 -55 268 -72 393 -42 117 27 255 140 311 254 l33
67 0 170 c0 168 0 171 -29 225 -37 70 -156 189 -221 222 -27 14 -74 31 -103
37 -71 15 -247 13 -299 -4z m267 -201 c39 -12 66 -29 105 -67 61 -62 80 -117
79 -227 -2 -175 -107 -281 -278 -283 -135 -1 -214 41 -262 140 -26 52 -29 68
-29 158 0 92 2 104 30 155 64 115 210 167 355 124z"/>
<path d="M3683 5146 c-125 -57 -198 -216 -159 -350 21 -71 64 -114 172 -175
191 -107 215 -130 194 -180 -23 -56 -43 -65 -139 -64 -84 1 -115 9 -227 59 -7
3 -13 -21 -17 -68 -4 -40 -9 -87 -13 -104 -6 -32 -5 -32 50 -48 128 -38 248
-46 346 -25 110 24 188 125 198 258 4 62 1 77 -22 125 -33 67 -71 98 -207 171
-57 30 -114 67 -126 81 -33 36 -31 88 4 120 37 34 66 39 145 26 125 -22 125
-22 135 84 5 58 4 63 -20 79 -37 24 -268 32 -314 11z"/>
<path d="M7446 5146 c-56 -21 -86 -45 -123 -100 -60 -88 -70 -193 -29 -282 28
-61 85 -107 221 -179 110 -59 135 -80 135 -116 0 -37 -19 -78 -39 -83 -83 -22
-209 -9 -285 29 -27 14 -50 24 -51 23 -10 -11 -22 -165 -15 -183 17 -45 204
-93 305 -79 121 16 207 70 250 157 34 71 42 140 22 208 -25 85 -79 132 -255
224 -76 40 -122 83 -122 116 0 11 15 36 34 57 32 35 38 37 93 36 32 0 84 -4
115 -9 l56 -8 7 49 c3 27 8 65 11 85 5 34 3 36 -33 48 -60 20 -250 24 -297 7z"/>
<path d="M216 4077 c-14 -10 -16 -26 -14 -97 l3 -85 44 0 c51 0 66 20 21 28
-37 8 -38 25 -2 53 l27 22 -27 11 c-34 13 -44 30 -21 37 10 3 25 8 33 11 12 4
12 7 -4 19 -24 17 -37 18 -60 1z"/>
<path d="M592 4082 c-9 -6 -12 -33 -10 -95 3 -86 20 -124 26 -58 l3 34 39 -38
c40 -39 58 -35 38 10 -9 20 -9 33 0 59 15 42 15 61 0 74 -19 15 -81 24 -96 14z
m58 -57 c0 -19 -20 -29 -32 -17 -15 15 -2 43 17 36 8 -3 15 -12 15 -19z"/>
<path d="M970 4027 c0 -83 10 -139 24 -134 6 2 13 12 14 23 2 10 21 35 43 55
40 38 51 77 27 96 -7 6 -34 13 -60 16 l-48 7 0 -63z m76 -16 c-11 -18 -36 -13
-36 7 0 10 3 22 7 26 10 10 37 -20 29 -33z"/>
<path d="M1368 4079 c-14 -8 -18 -24 -18 -77 0 -74 8 -112 21 -112 5 0 12 14
16 30 3 17 9 33 13 35 10 6 36 -18 50 -46 19 -34 32 -22 25 22 -4 24 -2 52 5
69 16 39 0 66 -48 80 -44 12 -43 12 -64 -1z m56 -35 c9 -3 16 -13 16 -21 0
-21 -44 -12 -48 10 -4 18 6 21 32 11z"/>
<path d="M1767 4083 c-16 -4 -17 -15 -15 -96 l3 -92 44 0 c55 0 64 19 16 35
l-37 12 28 29 c15 16 26 30 23 31 -2 2 -12 8 -23 13 -28 16 -25 29 8 35 37 6
44 25 14 34 -25 6 -33 6 -61 -1z"/>
<path d="M2133 4083 c-28 -5 -30 -23 -3 -30 22 -6 27 -21 33 -101 4 -50 11
-71 22 -61 2 3 8 38 11 78 5 47 12 75 21 78 24 9 14 30 -18 37 -17 3 -34 5
-38 5 -3 -1 -16 -4 -28 -6z"/>
<path d="M2516 4075 c-12 -12 -16 -35 -16 -88 0 -87 7 -99 50 -95 41 4 50 23
15 32 -34 9 -34 43 1 52 l25 7 -25 26 c-31 32 -32 41 -7 41 18 0 38 17 29 25
-14 14 -57 14 -72 0z"/>
<path d="M2876 4074 c-17 -16 -21 -79 -10 -147 7 -41 27 -45 32 -6 6 42 20 44
42 5 14 -22 30 -36 42 -36 16 0 18 4 12 18 -5 9 -9 44 -9 77 -2 83 -1 82 -36
94 -43 15 -55 14 -73 -5z m72 -47 c4 -20 -25 -34 -40 -19 -15 15 -1 44 19 40
10 -2 19 -11 21 -21z"/>
<path d="M3283 4080 c-37 -15 -31 -65 12 -103 19 -17 35 -34 35 -39 0 -4 -16
-8 -36 -8 -28 0 -35 -3 -32 -17 4 -24 43 -28 74 -9 35 24 32 66 -6 94 -34 26
-39 52 -11 52 28 0 35 17 12 29 -23 13 -19 12 -48 1z"/>
<path d="M4788 4079 c-15 -8 -18 -24 -18 -84 0 -96 4 -105 47 -105 81 0 124
106 67 164 -15 14 -32 26 -40 26 -7 0 -18 2 -26 5 -7 2 -21 0 -30 -6z m62 -39
c15 0 31 -40 25 -60 -8 -26 -33 -50 -51 -50 -11 0 -14 15 -14 61 0 52 2 60 16
55 9 -3 20 -6 24 -6z"/>
<path d="M5505 4083 c-34 -8 -40 -22 -13 -32 26 -10 38 -46 38 -118 0 -35 15
-52 24 -27 3 9 6 36 6 60 0 51 14 84 35 84 28 0 15 28 -16 34 -34 6 -43 6 -74
-1z"/>
<path d="M5888 4079 c-27 -15 -25 -189 2 -189 4 0 11 16 14 35 4 19 11 35 15
35 5 0 18 -16 30 -35 11 -19 27 -35 36 -35 17 0 19 9 6 43 -6 15 -5 39 2 65
10 37 9 44 -8 61 -25 24 -74 34 -97 20z m66 -45 c8 -21 -1 -34 -24 -34 -22 0
-33 23 -17 39 16 16 34 14 41 -5z"/>
<path d="M6680 4004 c0 -86 12 -138 24 -104 3 8 7 30 8 49 l3 34 53 -48 52
-47 0 80 c0 44 -3 87 -6 96 -12 30 -24 16 -24 -28 0 -25 -4 -47 -8 -50 -5 -3
-30 20 -55 51 l-47 55 0 -88z"/>
<path d="M7112 4075 c-32 -23 -27 -53 13 -91 43 -41 44 -52 3 -56 -44 -4 -45
-32 -1 -36 35 -3 73 25 73 54 0 9 -16 31 -35 48 -42 39 -43 44 -10 56 24 9 35
30 16 30 -5 0 -15 2 -23 5 -7 3 -23 -2 -36 -10z"/>
<path d="M8253 4083 c-24 -5 -31 -29 -11 -35 6 -2 15 -37 19 -77 5 -40 11 -76
14 -79 10 -10 17 7 22 55 7 77 12 91 33 98 30 10 24 32 -11 39 -17 3 -34 5
-38 5 -3 -1 -16 -4 -28 -6z"/>
<path d="M8956 4067 c-48 -48 -28 -167 29 -167 17 0 20 26 4 35 -26 17 -30 57
-9 98 27 51 13 71 -24 34z"/>
<path d="M3969 4015 c-16 -36 -30 -75 -32 -88 -2 -21 2 -22 72 -25 61 -2 73 0
68 12 -25 65 -70 166 -74 166 -2 0 -18 -29 -34 -65z m32 -68 c-8 -8 -11 -5
-11 9 0 27 14 41 18 19 2 -9 -1 -22 -7 -28z"/>
<path d="M4340 4001 c0 -44 3 -86 6 -95 9 -24 24 -19 24 8 0 32 10 56 22 56 6
0 32 -19 57 -42 l46 -43 3 65 c5 113 -20 179 -34 90 -4 -22 -12 -40 -18 -40
-7 0 -30 18 -51 40 -21 22 -43 40 -47 40 -4 0 -8 -36 -8 -79z"/>
<path d="M6322 4064 c-19 -37 -62 -148 -62 -162 0 -11 13 -12 68 -7 37 4 70 9
74 11 6 4 -37 119 -60 160 -9 16 -10 16 -20 -2z m22 -116 c-9 -14 -24 2 -24
25 1 21 1 21 15 3 8 -10 12 -23 9 -28z"/>
<path d="M7476 4058 c-9 -34 -7 -141 3 -156 9 -15 73 -13 78 3 2 6 -7 15 -19
20 -13 6 -24 17 -25 25 -1 8 -5 41 -8 73 -7 59 -18 73 -29 35z"/>
<path d="M7853 3998 c-18 -44 -30 -85 -27 -90 7 -11 144 -10 144 1 0 15 -72
171 -79 171 -3 0 -20 -37 -38 -82z m44 -40 c-3 -7 -5 -2 -5 12 0 14 2 19 5 13
2 -7 2 -19 0 -25z"/>
<path d="M8625 4039 c-8 -46 2 -149 14 -149 10 0 21 50 21 95 0 45 -11 95 -20
95 -5 0 -11 -18 -15 -41z"/>
</g>
</svg>
